<svg xmlns="http://www.w3.org/2000/svg" xmlns:xlink="http://www.w3.org/1999/xlink" xmlns:lucid="lucid" width="1794.4" height="940.95"><g transform="translate(-60 -380)" lucid:page-tab-id="0_0"><path d="M1137.5 857.75c0-5.52 4.48-10 10-10h620c5.52 0 10 4.48 10 10V1190c0 5.52-4.48 10-10 10h-620c-5.52 0-10-4.48-10-10z" fill="#ccc"/><path d="M1188.83 847.75h41.34m20.66 0h41.34m20.66 0h41.34m20.66 0h41.34m20.66 0h41.34m20.66 0h41.34m20.66 0h41.34m20.66 0h41.34m20.66 0h41.34m20.66 0h20.67l3.16.5 2.75 1.43 2.17 2.16 1.42 2.75.5 3.15v18.46m0 18.47v36.9m0 18.47v36.92m0 18.46v36.9m0 18.47v36.9m0 18.47v36.9m0 18.47V1190l-.5 3.16-1.43 2.75-2.16 2.17-2.74 1.42-3.16.5h-20.67m-20.66 0h-41.34m-20.66 0h-41.34m-20.66 0h-41.34m-20.66 0h-41.34m-20.66 0h-41.34m-20.66 0h-41.34m-20.66 0h-41.34m-20.66 0h-41.34m-20.66 0h-41.34m-20.66 0h-20.67l-3.16-.5-2.75-1.43-2.17-2.16-1.42-2.74-.5-3.16v-18.46m0-18.46v-36.9m0-18.47v-36.9m0-18.47v-36.9m0-18.47v-36.92m0-18.46v-36.9m0-18.47v-18.45l.5-3.16 1.43-2.76 2.16-2.16 2.74-1.42 3.16-.5h20.67" stroke="#000" stroke-width="2" fill="none"/><use xlink:href="#a" transform="matrix(1,0,0,1,1142.5,852.75) translate(282.525 175.18125)"/><path d="M1177.5 897.75c0-5.52 4.48-10 10-10h540c5.52 0 10 4.48 10 10V1150c0 5.52-4.48 10-10 10h-540c-5.52 0-10-4.48-10-10z" stroke="#000" stroke-width="2" fill="#99d2f2"/><path d="M1215 939.25h480V1120h-480z" stroke="#000" stroke-width="2" fill="#ffdf71"/><path d="M1240 959.25h430v60h-430z" stroke="#000" stroke-width="2" fill="#7ab648"/><use xlink:href="#b" transform="matrix(1,0,0,1,1245,964.25) translate(137.64999999999998 30.025)"/><use xlink:href="#c" transform="matrix(1,0,0,1,1245,964.25) translate(218.59999999999997 30.025)"/><path d="M1275 1247.75h160v53.2h-160z" stroke="#000" stroke-width="2" fill="#7ab648"/><use xlink:href="#d" transform="matrix(1,0,0,1,1280,1252.75) translate(14.299999999999997 25.4)"/><use xlink:href="#e" transform="matrix(1,0,0,1,1280,1252.75) translate(89.8 25.4)"/><path d="M1240 1040h430v40h-430z" stroke="#000" stroke-width="2" fill="#7ab648"/><use xlink:href="#f" transform="matrix(1,0,0,1,1245,1045) translate(187.5 18.15)"/><path d="M1478.3 1247.75h160v53.2h-160z" stroke="#000" stroke-width="2" fill="#7ab648"/><use xlink:href="#g" transform="matrix(1,0,0,1,1483.3000000000002,1252.75) translate(47.025 25.4)"/><path d="M1455 1082v98h103.3v48.25" stroke="#000" stroke-width="2" fill="none"/><path d="M1456 1082.03h-2V1081h2z"/><path d="M1558.3 1243.5l-4.64-14.25h9.28z" stroke="#000" stroke-width="2"/><path d="M1239.2 510c0-5.52 4.48-10 10-10h575.2c5.52 0 10 4.48 10 10v180c0 5.52-4.48 10-10 10h-575.2c-5.52 0-10-4.48-10-10z" fill="#fff"/><path d="M1287.55 500h38.34m19.17 0h38.34m19.2 0h38.33m19.18 0h38.35m19.18 0h38.34m19.18 0h38.34m19.17 0H1671m19.2 0h38.33m19.18 0h38.35m19.18 0h19.17l3.16.5 2.75 1.43 2.17 2.16 1.42 2.74.5 3.16v20m0 20v40m0 20v40m0 20v20l-.5 3.16-1.43 2.75-2.16 2.17-2.74 1.42-3.16.5h-19.17m-19.18 0h-38.34m-19.17 0h-38.34m-19.2 0h-38.33m-19.18 0h-38.35m-19.18 0h-38.34m-19.18 0h-38.34m-19.17 0h-38.34m-19.2 0h-38.33m-19.18 0h-38.35m-19.18 0h-19.17l-3.16-.5-2.75-1.43-2.17-2.16-1.42-2.74-.5-3.16v-20m0-20v-40m0-20v-40m0-20v-20l.5-3.16 1.43-2.75 2.16-2.17 2.74-1.42 3.16-.5h19.17" stroke="#000" stroke-width="2" fill="none"/><use xlink:href="#a" transform="matrix(1,0,0,1,1244.2,505) translate(260.525 97.9625)"/><path d="M320.75 410c0-5.52 4.48-10 10-10H1055c5.52 0 10 4.48 10 10v490c0 5.52-4.48 10-10 10H330.75c-5.52 0-10-4.48-10-10z" fill="#ccc"/><path d="M371 400h40.22m20.12 0h40.24m20.12 0h40.23m20.12 0h40.24m20.1 0h40.24m20.12 0H713m20.1 0h40.25m20.12 0h40.23m20.12 0h40.24m20.1 0h40.25m20.13 0h40.23m20.12 0H1055l3.16.5 2.75 1.43 2.17 2.16 1.42 2.74.5 3.16v20.42m0 20.4v40.85m0 20.4v40.85m0 20.4v40.85m0 20.4v40.85m0 20.4v40.85m0 20.4v40.85m0 20.4v40.85m0 20.4V900l-.5 3.16-1.43 2.75-2.16 2.17-2.74 1.42-3.16.5h-20.12m-20.12 0h-40.23m-20.12 0h-40.23m-20.1 0H853.8m-20.12 0h-40.23m-20.12 0H733.1m-20.1 0h-40.24m-20.12 0H612.4m-20.1 0h-40.25m-20.12 0H491.7m-20.12 0h-40.24m-20.12 0H371m-20.13 0h-20.12l-3.16-.5-2.75-1.43-2.17-2.16-1.42-2.74-.5-3.16v-20.42m0-20.4v-40.85m0-20.4v-40.85m0-20.4v-40.85m0-20.4v-40.85m0-20.4v-40.85m0-20.4v-40.85m0-20.4v-40.85m0-20.4V410l.5-3.16 1.42-2.75 2.17-2.17 2.74-1.42 3.15-.5h20.12" stroke="#000" stroke-width="2" fill="none"/><path d="M80 520h160v60H80z" stroke="#000" stroke-width="2" fill="#7ab648"/><use xlink:href="#h" transform="matrix(1,0,0,1,85,525) translate(1.5999999999999943 17.525)"/><use xlink:href="#i" transform="matrix(1,0,0,1,85,525) translate(75.45 17.525)"/><use xlink:href="#j" transform="matrix(1,0,0,1,85,525) translate(1.1499999999999915 39.125)"/><use xlink:href="#k" transform="matrix(1,0,0,1,85,525) translate(60.099999999999994 39.125)"/><path d="M407.5 500c0-5.52 4.48-10 10-10h560c5.52 0 10 4.48 10 10v270c0 5.52-4.48 10-10 10h-560c-5.52 0-10-4.48-10-10z" stroke="#000" stroke-width="2" fill="#99d2f2"/><path d="M445 653.75h515v90H445z" stroke="#000" stroke-width="2" fill="#7ab648"/><use xlink:href="#b" transform="matrix(1,0,0,1,450,658.75) translate(180.14999999999998 44.4)"/><use xlink:href="#c" transform="matrix(1,0,0,1,450,658.75) translate(261.09999999999997 44.4)"/><path d="M242 550h98v50h80.5" stroke="#000" stroke-width="2" fill="none"/><path d="M242.03 551H241v-2h1.03z"/><path d="M435.76 600l-14.26 4.64v-9.28z" stroke="#000" stroke-width="2"/><path d="M445 506.25h190v40H445z" stroke="#000" stroke-width="2" fill="#7ab648"/><use xlink:href="#l" transform="matrix(1,0,0,1,450,511.25) translate(71.75 18.15)"/><path d="M637 526.25h65.5v108" stroke="#000" stroke-width="2" fill="none"/><path d="M637.03 527.25H636v-2h1.03z"/><path d="M702.5 649.5l-4.64-14.25h9.28z" stroke="#000" stroke-width="2"/><path d="M700 560h240v60H700z" stroke="#000" stroke-opacity="0" stroke-width="2" fill="#fff" fill-opacity="0"/><use xlink:href="#m" transform="matrix(1,0,0,1,705,565) translate(71.94999999999999 30.025)"/><path d="M377.5 410h240v60h-240z" stroke="#000" stroke-opacity="0" stroke-width="2" fill="#fff" fill-opacity="0"/><use xlink:href="#n" transform="matrix(1,0,0,1,382.5,415) translate(34.64999999999999 17.525)"/><use xlink:href="#o" transform="matrix(1,0,0,1,382.5,415) translate(94.55 17.525)"/><use xlink:href="#p" transform="matrix(1,0,0,1,382.5,415) translate(109.55 17.525)"/><use xlink:href="#q" transform="matrix(1,0,0,1,382.5,415) translate(163.45 17.525)"/><use xlink:href="#r" transform="matrix(1,0,0,1,382.5,415) translate(68.975 39.125)"/><path d="M1455 1082v98h-100v48.25" stroke="#000" stroke-width="2" fill="none"/><path d="M1456 1082.03h-2V1081h2z"/><path d="M1355 1243.5l-4.64-14.25h9.28z" stroke="#000" stroke-width="2"/><path d="M1160 839.63h240v60h-240z" stroke="#000" stroke-opacity="0" stroke-width="2" fill="#fff" fill-opacity="0"/><use xlink:href="#n" transform="matrix(1,0,0,1,1165,844.625) translate(10.199999999999989 30.025)"/><use xlink:href="#s" transform="matrix(1,0,0,1,1165,844.625) translate(70.1 30.025)"/><use xlink:href="#t" transform="matrix(1,0,0,1,1165,844.625) translate(85.1 30.025)"/><use xlink:href="#u" transform="matrix(1,0,0,1,1165,844.625) translate(96.05 30.025)"/><use xlink:href="#v" transform="matrix(1,0,0,1,1165,844.625) translate(164.95 30.025)"/><path d="M702.5 763.25v226h518" stroke="#000" stroke-width="2" fill="none"/><path d="M702.5 748l4.64 14.25h-9.28zM1235.76 989.25l-14.26 4.64v-9.3z" stroke="#000" stroke-width="2"/><use xlink:href="#w" transform="matrix(1,0,0,1,731.6090909090908,963.65) translate(0 14.4)"/><use xlink:href="#x" transform="matrix(1,0,0,1,731.6090909090908,963.65) translate(5 14.4)"/><use xlink:href="#y" transform="matrix(1,0,0,1,731.6090909090908,963.65) translate(31 14.4)"/><use xlink:href="#z" transform="matrix(1,0,0,1,731.6090909090908,963.65) translate(100.80000000000001 14.4)"/><use xlink:href="#A" transform="matrix(1,0,0,1,731.6090909090908,963.65) translate(226.60000000000002 14.4)"/><path d="M440 570h190v60H440z" stroke="#000" stroke-width="2" fill="#7ab648"/><use xlink:href="#f" transform="matrix(1,0,0,1,445,575) translate(67.5 30.025)"/><path d="M962 698.75h152.08V600h134.57" stroke="#000" stroke-width="2" fill="none"/><path d="M962.03 699.75H961v-2h1.03z"/><path d="M1263.9 600l-14.25 4.64v-9.28z" stroke="#000" stroke-width="2"/><use xlink:href="#B" transform="matrix(1,0,0,1,1076.5701704545454,574.4000000000001) translate(0 14.4)"/><use xlink:href="#C" transform="matrix(1,0,0,1,1076.5701704545454,574.4000000000001) translate(26 14.4)"/><use xlink:href="#D" transform="matrix(1,0,0,1,1076.5701704545454,574.4000000000001) translate(66 14.4)"/><use xlink:href="#A" transform="matrix(1,0,0,1,1076.5701704545454,574.4000000000001) translate(131.9 14.4)"/><path d="M80 625h160v60H80z" stroke="#000" stroke-width="2" fill="#7ab648"/><g><use xlink:href="#E" transform="matrix(1,0,0,1,85,630) translate(44.5 30.025)"/></g><path d="M242 655h98v-55h80.5" stroke="#000" stroke-width="2" fill="none"/><path d="M242.03 656H241v-2h1.03z"/><path d="M435.76 600l-14.26 4.64v-9.28z" stroke="#000" stroke-width="2"/><path d="M1239.2 440h240v60h-240z" stroke="#000" stroke-opacity="0" stroke-width="2" fill="#fff" fill-opacity="0"/><g><use xlink:href="#F" transform="matrix(1,0,0,1,1244.2,445) translate(2.174999999999983 30.025)"/><use xlink:href="#G" transform="matrix(1,0,0,1,1244.2,445) translate(73.07499999999999 30.025)"/><use xlink:href="#H" transform="matrix(1,0,0,1,1244.2,445) translate(139.975 30.025)"/></g><path d="M1268.15 530h537.3v140h-537.3z" stroke="#000" stroke-width="2" fill="#ef8d22"/><path d="M632 600h70.5v34.25" stroke="#000" stroke-width="2" fill="none"/><path d="M632.03 601H631v-2h1.03z"/><path d="M702.5 649.5l-4.64-14.25h9.28z" stroke="#000" stroke-width="2"/><path d="M1335 889.25h240v60h-240z" stroke="#000" stroke-opacity="0" stroke-width="2" fill="#fff" fill-opacity="0"/><g><use xlink:href="#m" transform="matrix(1,0,0,1,1340,894.25) translate(71.94999999999999 30.025)"/></g><path d="M1299 563.03h221v82.5h-221z" stroke="#000" stroke-width="2" fill="#7ab648"/><g><use xlink:href="#I" transform="matrix(1,0,0,1,1304,568.03125) translate(67.525 39.49375)"/></g><path d="M1575 563.03h203.3v82.5H1575z" stroke="#000" stroke-width="2" fill="#7ab648"/><g><use xlink:href="#J" transform="matrix(1,0,0,1,1580,568.03125) translate(41.099999999999994 39.49375)"/><use xlink:href="#K" transform="matrix(1,0,0,1,1580,568.03125) translate(84 39.49375)"/></g><defs><path d="M30-248c87 1 191-15 191 75 0 78-77 80-158 76V0H30v-248zm33 125c57 0 124 11 124-50 0-59-68-47-124-48v98" id="L"/><path d="M114-163C36-179 61-72 57 0H25l-1-190h30c1 12-1 29 2 39 6-27 23-49 58-41v29" id="M"/><path d="M100-194c62-1 85 37 85 99 1 63-27 99-86 99S16-35 15-95c0-66 28-99 85-99zM99-20c44 1 53-31 53-75 0-43-8-75-51-75s-53 32-53 75 10 74 51 75" id="N"/><path d="M96-169c-40 0-48 33-48 73s9 75 48 75c24 0 41-14 43-38l32 2c-6 37-31 61-74 61-59 0-76-41-82-99-10-93 101-131 147-64 4 7 5 14 7 22l-32 3c-4-21-16-35-41-35" id="O"/><path d="M100-194c63 0 86 42 84 106H49c0 40 14 67 53 68 26 1 43-12 49-29l28 8c-11 28-37 45-77 45C44 4 14-33 15-96c1-61 26-98 85-98zm52 81c6-60-76-77-97-28-3 7-6 17-6 28h103" id="P"/><path d="M135-143c-3-34-86-38-87 0 15 53 115 12 119 90S17 21 10-45l28-5c4 36 97 45 98 0-10-56-113-15-118-90-4-57 82-63 122-42 12 7 21 19 24 35" id="Q"/><g id="a"><use transform="matrix(0.05,0,0,0.05,0,0)" xlink:href="#L"/><use transform="matrix(0.05,0,0,0.05,12,0)" xlink:href="#M"/><use transform="matrix(0.05,0,0,0.05,17.95,0)" xlink:href="#N"/><use transform="matrix(0.05,0,0,0.05,27.950000000000003,0)" xlink:href="#O"/><use transform="matrix(0.05,0,0,0.05,36.95,0)" xlink:href="#P"/><use transform="matrix(0.05,0,0,0.05,46.95,0)" xlink:href="#Q"/><use transform="matrix(0.05,0,0,0.05,55.95,0)" xlink:href="#Q"/></g><path d="M160-131c35 5 61 23 61 61C221 17 115-2 30 0v-248c76 3 177-17 177 60 0 33-19 50-47 57zm-97-11c50-1 110 9 110-42 0-47-63-36-110-37v79zm0 115c55-2 124 14 124-45 0-56-70-42-124-44v89" id="R"/><path d="M24 0v-261h32V0H24" id="S"/><path d="M84 4C-5 8 30-112 23-190h32v120c0 31 7 50 39 49 72-2 45-101 50-169h31l1 190h-30c-1-10 1-25-2-33-11 22-28 36-60 37" id="T"/><path d="M59-47c-2 24 18 29 38 22v24C64 9 27 4 27-40v-127H5v-23h24l9-43h21v43h35v23H59v120" id="U"/><path d="M106-169C34-169 62-67 57 0H25v-261h32l-1 103c12-21 28-36 61-36 89 0 53 116 60 194h-32v-121c2-32-8-49-39-48" id="V"/><g id="b"><use transform="matrix(0.05,0,0,0.05,0,0)" xlink:href="#R"/><use transform="matrix(0.05,0,0,0.05,12,0)" xlink:href="#S"/><use transform="matrix(0.05,0,0,0.05,15.949999999999998,0)" xlink:href="#T"/><use transform="matrix(0.05,0,0,0.05,25.950000000000003,0)" xlink:href="#P"/><use transform="matrix(0.05,0,0,0.05,35.95,0)" xlink:href="#U"/><use transform="matrix(0.05,0,0,0.05,40.95,0)" xlink:href="#N"/><use transform="matrix(0.05,0,0,0.05,50.95,0)" xlink:href="#N"/><use transform="matrix(0.05,0,0,0.05,60.95,0)" xlink:href="#U"/><use transform="matrix(0.05,0,0,0.05,65.95,0)" xlink:href="#V"/></g><path d="M87 75C49 33 22-17 22-94c0-76 28-126 65-167h31c-38 41-64 92-64 168S80 34 118 75H87" id="W"/><path d="M197 0v-115H63V0H30v-248h33v105h134v-105h34V0h-34" id="X"/><path d="M212-179c-10-28-35-45-73-45-59 0-87 40-87 99 0 60 29 101 89 101 43 0 62-24 78-52l27 14C228-24 195 4 139 4 59 4 22-46 18-125c-6-104 99-153 187-111 19 9 31 26 39 46" id="Y"/><path d="M16-82v-28h88v28H16" id="Z"/><path d="M101-251c68 0 85 55 85 127S166 4 100 4C33 4 14-52 14-124c0-73 17-127 87-127zm-1 229c47 0 54-49 54-102s-4-102-53-102c-51 0-55 48-55 102 0 53 5 102 54 102" id="aa"/><path d="M54-142c48-35 137-8 131 61C196 18 31 33 14-55l32-4c7 23 22 37 52 37 35-1 51-22 54-58 4-55-73-65-99-34H22l8-134h141v27H59" id="ab"/><path d="M33-261c38 41 65 92 65 168S71 34 33 75H2C39 34 66-17 66-93S39-220 2-261h31" id="ac"/><g id="c"><use transform="matrix(0.05,0,0,0.05,0,0)" xlink:href="#W"/><use transform="matrix(0.05,0,0,0.05,5.95,0)" xlink:href="#X"/><use transform="matrix(0.05,0,0,0.05,18.900000000000002,0)" xlink:href="#Y"/><use transform="matrix(0.05,0,0,0.05,31.85,0)" xlink:href="#Z"/><use transform="matrix(0.05,0,0,0.05,37.800000000000004,0)" xlink:href="#aa"/><use transform="matrix(0.05,0,0,0.05,47.800000000000004,0)" xlink:href="#ab"/><use transform="matrix(0.05,0,0,0.05,57.800000000000004,0)" xlink:href="#ac"/></g><path d="M137 0h-34L2-248h35l83 218 83-218h36" id="ad"/><path d="M24-231v-30h32v30H24zM24 0v-190h32V0H24" id="ae"/><path d="M115-194c53 0 69 39 70 98 0 66-23 100-70 100C84 3 66-7 56-30L54 0H23l1-261h32v101c10-23 28-34 59-34zm-8 174c40 0 45-34 45-75 0-40-5-75-45-74-42 0-51 32-51 76 0 43 10 73 51 73" id="af"/><path d="M141-36C126-15 110 5 73 4 37 3 15-17 15-53c-1-64 63-63 125-63 3-35-9-54-41-54-24 1-41 7-42 31l-33-3c5-37 33-52 76-52 45 0 72 20 72 64v82c-1 20 7 32 28 27v20c-31 9-61-2-59-35zM48-53c0 20 12 33 32 33 41-3 63-29 60-74-43 2-92-5-92 41" id="ag"/><path d="M117-194c89-4 53 116 60 194h-32v-121c0-31-8-49-39-48C34-167 62-67 57 0H25l-1-190h30c1 10-1 24 2 32 11-22 29-35 61-36" id="ah"/><g id="d"><use transform="matrix(0.05,0,0,0.05,0,0)" xlink:href="#ad"/><use transform="matrix(0.05,0,0,0.05,11.65,0)" xlink:href="#ae"/><use transform="matrix(0.05,0,0,0.05,15.600000000000001,0)" xlink:href="#af"/><use transform="matrix(0.05,0,0,0.05,25.6,0)" xlink:href="#M"/><use transform="matrix(0.05,0,0,0.05,31.55,0)" xlink:href="#ag"/><use transform="matrix(0.05,0,0,0.05,41.55,0)" xlink:href="#U"/><use transform="matrix(0.05,0,0,0.05,46.55,0)" xlink:href="#ae"/><use transform="matrix(0.05,0,0,0.05,50.5,0)" xlink:href="#N"/><use transform="matrix(0.05,0,0,0.05,60.5,0)" xlink:href="#ah"/></g><path d="M210-169c-67 3-38 105-44 169h-31v-121c0-29-5-50-35-48C34-165 62-65 56 0H25l-1-190h30c1 10-1 24 2 32 10-44 99-50 107 0 11-21 27-35 58-36 85-2 47 119 55 194h-31v-121c0-29-5-49-35-48" id="ai"/><g id="e"><use transform="matrix(0.05,0,0,0.05,0,0)" xlink:href="#ai"/><use transform="matrix(0.05,0,0,0.05,14.950000000000001,0)" xlink:href="#N"/><use transform="matrix(0.05,0,0,0.05,24.950000000000003,0)" xlink:href="#U"/><use transform="matrix(0.05,0,0,0.05,29.950000000000003,0)" xlink:href="#N"/><use transform="matrix(0.05,0,0,0.05,39.95,0)" xlink:href="#M"/></g><path d="M143 4C61 4 22-44 18-125c-5-107 100-154 193-111 17 8 29 25 37 43l-32 9c-13-25-37-40-76-40-61 0-88 39-88 99 0 61 29 100 91 101 35 0 62-11 79-27v-45h-74v-28h105v86C228-13 192 4 143 4" id="aj"/><path d="M33 0v-248h34V0H33" id="ak"/><path d="M140-251c81 0 123 46 123 126C263-46 219 4 140 4 59 4 17-45 17-125s42-126 123-126zm0 227c63 0 89-41 89-101s-29-99-89-99c-61 0-89 39-89 99S79-25 140-24" id="al"/><g id="f"><use transform="matrix(0.05,0,0,0.05,0,0)" xlink:href="#aj"/><use transform="matrix(0.05,0,0,0.05,14,0)" xlink:href="#L"/><use transform="matrix(0.05,0,0,0.05,26,0)" xlink:href="#ak"/><use transform="matrix(0.05,0,0,0.05,31,0)" xlink:href="#al"/></g><path d="M9 0v-24l116-142H16v-24h144v24L44-24h123V0H9" id="am"/><g id="g"><use transform="matrix(0.05,0,0,0.05,0,0)" xlink:href="#R"/><use transform="matrix(0.05,0,0,0.05,12,0)" xlink:href="#T"/><use transform="matrix(0.05,0,0,0.05,22,0)" xlink:href="#am"/><use transform="matrix(0.05,0,0,0.05,31,0)" xlink:href="#am"/><use transform="matrix(0.05,0,0,0.05,40,0)" xlink:href="#P"/><use transform="matrix(0.05,0,0,0.05,50,0)" xlink:href="#M"/></g><path d="M240 0l2-218c-23 76-54 145-80 218h-23L58-218 59 0H30v-248h44l77 211c21-75 51-140 76-211h43V0h-30" id="an"/><g id="h"><use transform="matrix(0.05,0,0,0.05,0,0)" xlink:href="#an"/><use transform="matrix(0.05,0,0,0.05,14.950000000000001,0)" xlink:href="#N"/><use transform="matrix(0.05,0,0,0.05,24.950000000000003,0)" xlink:href="#ae"/><use transform="matrix(0.05,0,0,0.05,28.900000000000002,0)" xlink:href="#Q"/><use transform="matrix(0.05,0,0,0.05,37.900000000000006,0)" xlink:href="#U"/><use transform="matrix(0.05,0,0,0.05,42.900000000000006,0)" xlink:href="#T"/><use transform="matrix(0.05,0,0,0.05,52.900000000000006,0)" xlink:href="#M"/><use transform="matrix(0.05,0,0,0.05,58.85,0)" xlink:href="#P"/></g><path d="M85-194c31 0 48 13 60 33l-1-100h32l1 261h-30c-2-10 0-23-3-31C134-8 116 4 85 4 32 4 16-35 15-94c0-66 23-100 70-100zm9 24c-40 0-46 34-46 75 0 40 6 74 45 74 42 0 51-32 51-76 0-42-9-74-50-73" id="ao"/><g id="i"><use transform="matrix(0.05,0,0,0.05,0,0)" xlink:href="#ao"/><use transform="matrix(0.05,0,0,0.05,10,0)" xlink:href="#P"/><use transform="matrix(0.05,0,0,0.05,20,0)" xlink:href="#U"/><use transform="matrix(0.05,0,0,0.05,25,0)" xlink:href="#P"/><use transform="matrix(0.05,0,0,0.05,35,0)" xlink:href="#O"/><use transform="matrix(0.05,0,0,0.05,44,0)" xlink:href="#U"/><use transform="matrix(0.05,0,0,0.05,49,0)" xlink:href="#ae"/><use transform="matrix(0.05,0,0,0.05,52.95,0)" xlink:href="#N"/><use transform="matrix(0.05,0,0,0.05,62.95,0)" xlink:href="#ah"/></g><g id="j"><use transform="matrix(0.05,0,0,0.05,0,0)" xlink:href="#Q"/><use transform="matrix(0.05,0,0,0.05,9,0)" xlink:href="#P"/><use transform="matrix(0.05,0,0,0.05,19,0)" xlink:href="#ah"/><use transform="matrix(0.05,0,0,0.05,29,0)" xlink:href="#Q"/><use transform="matrix(0.05,0,0,0.05,38,0)" xlink:href="#N"/><use transform="matrix(0.05,0,0,0.05,48,0)" xlink:href="#M"/></g><g id="k"><use transform="matrix(0.05,0,0,0.05,0,0)" xlink:href="#W"/><use transform="matrix(0.05,0,0,0.05,5.95,0)" xlink:href="#Q"/><use transform="matrix(0.05,0,0,0.05,14.949999999999998,0)" xlink:href="#ae"/><use transform="matrix(0.05,0,0,0.05,18.9,0)" xlink:href="#ai"/><use transform="matrix(0.05,0,0,0.05,33.85,0)" xlink:href="#T"/><use transform="matrix(0.05,0,0,0.05,43.85,0)" xlink:href="#S"/><use transform="matrix(0.05,0,0,0.05,47.800000000000004,0)" xlink:href="#ag"/><use transform="matrix(0.05,0,0,0.05,57.800000000000004,0)" xlink:href="#U"/><use transform="matrix(0.05,0,0,0.05,62.800000000000004,0)" xlink:href="#P"/><use transform="matrix(0.05,0,0,0.05,72.80000000000001,0)" xlink:href="#ao"/><use transform="matrix(0.05,0,0,0.05,82.80000000000001,0)" xlink:href="#ac"/></g><path d="M233-177c-1 41-23 64-60 70L243 0h-38l-65-103H63V0H30v-248c88 3 205-21 203 71zM63-129c60-2 137 13 137-47 0-61-80-42-137-45v92" id="ap"/><path d="M127-220V0H93v-220H8v-28h204v28h-85" id="aq"/><g id="l"><use transform="matrix(0.05,0,0,0.05,0,0)" xlink:href="#ap"/><use transform="matrix(0.05,0,0,0.05,12.600000000000001,0)" xlink:href="#aq"/><use transform="matrix(0.05,0,0,0.05,23.550000000000004,0)" xlink:href="#Y"/></g><path d="M63-220v92h138v28H63V0H30v-248h175v28H63" id="ar"/><path d="M185-189c-5-48-123-54-124 2 14 75 158 14 163 119 3 78-121 87-175 55-17-10-28-26-33-46l33-7c5 56 141 63 141-1 0-78-155-14-162-118-5-82 145-84 179-34 5 7 8 16 11 25" id="as"/><g id="m"><use transform="matrix(0.05,0,0,0.05,0,0)" xlink:href="#ar"/><use transform="matrix(0.05,0,0,0.05,10.950000000000001,0)" xlink:href="#M"/><use transform="matrix(0.05,0,0,0.05,16.900000000000002,0)" xlink:href="#P"/><use transform="matrix(0.05,0,0,0.05,26.900000000000002,0)" xlink:href="#P"/><use transform="matrix(0.05,0,0,0.05,36.900000000000006,0)" xlink:href="#ap"/><use transform="matrix(0.05,0,0,0.05,49.50000000000001,0)" xlink:href="#aq"/><use transform="matrix(0.05,0,0,0.05,60.1,0)" xlink:href="#al"/><use transform="matrix(0.05,0,0,0.05,74.10000000000001,0)" xlink:href="#as"/></g><path d="M30-248c118-7 216 8 213 122C240-48 200 0 122 0H30v-248zM63-27c89 8 146-16 146-99s-60-101-146-95v194" id="at"/><path d="M108 0H70L1-190h34L89-25l56-165h34" id="au"/><g id="n"><use transform="matrix(0.05,0,0,0.05,0,0)" xlink:href="#at"/><use transform="matrix(0.05,0,0,0.05,12.950000000000001,0)" xlink:href="#P"/><use transform="matrix(0.05,0,0,0.05,22.950000000000003,0)" xlink:href="#au"/><use transform="matrix(0.05,0,0,0.05,31.950000000000003,0)" xlink:href="#ae"/><use transform="matrix(0.05,0,0,0.05,35.900000000000006,0)" xlink:href="#O"/><use transform="matrix(0.05,0,0,0.05,44.900000000000006,0)" xlink:href="#P"/></g><path d="M27 0v-27h64v-190l-56 39v-29l58-41h29v221h61V0H27" id="av"/><use transform="matrix(0.05,0,0,0.05,0,0)" xlink:href="#av" id="o"/><path d="M194 0L95-120 63-95V0H30v-248h33v124l119-124h40L117-140 236 0h-42" id="aw"/><path d="M110-160c48 1 74 30 74 79 0 53-28 85-80 85-65 0-83-55-86-122-5-90 50-162 133-122 14 7 22 21 27 39l-31 6c-5-40-67-38-82-6-9 19-15 44-15 74 11-20 30-34 60-33zm-7 138c34 0 49-23 49-58s-16-56-50-56c-29 0-50 16-49 49 1 36 15 65 50 65" id="ax"/><path d="M155-56V0h-30v-56H8v-25l114-167h33v167h35v25h-35zm-30-156c-27 46-58 90-88 131h88v-131" id="ay"/><g id="p"><use transform="matrix(0.05,0,0,0.05,0,0)" xlink:href="#W"/><use transform="matrix(0.05,0,0,0.05,5.95,0)" xlink:href="#aw"/><use transform="matrix(0.05,0,0,0.05,17.95,0)" xlink:href="#ax"/><use transform="matrix(0.05,0,0,0.05,27.950000000000003,0)" xlink:href="#ay"/><use transform="matrix(0.05,0,0,0.05,37.95,0)" xlink:href="#ar"/></g><path d="M206 0h-36l-40-164L89 0H53L-1-190h32L70-26l43-164h34l41 164 42-164h31" id="az"/><g id="q"><use transform="matrix(0.05,0,0,0.05,0,0)" xlink:href="#az"/><use transform="matrix(0.05,0,0,0.05,12.950000000000001,0)" xlink:href="#ae"/><use transform="matrix(0.05,0,0,0.05,16.900000000000002,0)" xlink:href="#U"/><use transform="matrix(0.05,0,0,0.05,21.900000000000002,0)" xlink:href="#V"/></g><g id="r"><use transform="matrix(0.05,0,0,0.05,0,0)" xlink:href="#ar"/><use transform="matrix(0.05,0,0,0.05,10.950000000000001,0)" xlink:href="#M"/><use transform="matrix(0.05,0,0,0.05,16.900000000000002,0)" xlink:href="#P"/><use transform="matrix(0.05,0,0,0.05,26.900000000000002,0)" xlink:href="#P"/><use transform="matrix(0.05,0,0,0.05,36.900000000000006,0)" xlink:href="#ap"/><use transform="matrix(0.05,0,0,0.05,49.50000000000001,0)" xlink:href="#aq"/><use transform="matrix(0.05,0,0,0.05,60.1,0)" xlink:href="#al"/><use transform="matrix(0.05,0,0,0.05,74.10000000000001,0)" xlink:href="#as"/><use transform="matrix(0.05,0,0,0.05,86.10000000000001,0)" xlink:href="#ac"/></g><path d="M101-251c82-7 93 87 43 132L82-64C71-53 59-42 53-27h129V0H18c2-99 128-94 128-182 0-28-16-43-45-43s-46 15-49 41l-32-3c6-41 34-60 81-64" id="aA"/><use transform="matrix(0.05,0,0,0.05,0,0)" xlink:href="#aA" id="s"/><use transform="matrix(0.05,0,0,0.05,0,0)" xlink:href="#Z" id="t"/><g id="u"><use transform="matrix(0.05,0,0,0.05,0,0)" xlink:href="#af"/><use transform="matrix(0.05,0,0,0.05,10,0)" xlink:href="#M"/><use transform="matrix(0.05,0,0,0.05,15.949999999999998,0)" xlink:href="#ag"/><use transform="matrix(0.05,0,0,0.05,25.950000000000003,0)" xlink:href="#O"/><use transform="matrix(0.05,0,0,0.05,34.95,0)" xlink:href="#P"/><use transform="matrix(0.05,0,0,0.05,44.95,0)" xlink:href="#S"/><use transform="matrix(0.05,0,0,0.05,48.900000000000006,0)" xlink:href="#P"/><use transform="matrix(0.05,0,0,0.05,58.900000000000006,0)" xlink:href="#U"/></g><g id="v"><use transform="matrix(0.05,0,0,0.05,0,0)" xlink:href="#W"/><use transform="matrix(0.05,0,0,0.05,5.95,0)" xlink:href="#aw"/><use transform="matrix(0.05,0,0,0.05,17.95,0)" xlink:href="#ax"/><use transform="matrix(0.05,0,0,0.05,27.950000000000003,0)" xlink:href="#ay"/><use transform="matrix(0.05,0,0,0.05,37.95,0)" xlink:href="#ar"/><use transform="matrix(0.05,0,0,0.05,48.900000000000006,0)" xlink:href="#ac"/></g><path d="M18-100v-36l175-74v27L42-118l151 64v27" id="aB"/><g id="x"><use transform="matrix(0.05,0,0,0.05,0,0)" xlink:href="#aB"/><use transform="matrix(0.05,0,0,0.05,10.5,0)" xlink:href="#aB"/></g><g id="y"><use transform="matrix(0.05,0,0,0.05,0,0)" xlink:href="#az"/><use transform="matrix(0.05,0,0,0.05,12.950000000000001,0)" xlink:href="#ae"/><use transform="matrix(0.05,0,0,0.05,16.900000000000002,0)" xlink:href="#M"/><use transform="matrix(0.05,0,0,0.05,22.85,0)" xlink:href="#P"/><use transform="matrix(0.05,0,0,0.05,32.85,0)" xlink:href="#S"/><use transform="matrix(0.05,0,0,0.05,36.800000000000004,0)" xlink:href="#P"/><use transform="matrix(0.05,0,0,0.05,46.800000000000004,0)" xlink:href="#Q"/><use transform="matrix(0.05,0,0,0.05,55.800000000000004,0)" xlink:href="#Q"/></g><g id="z"><use transform="matrix(0.05,0,0,0.05,0,0)" xlink:href="#O"/><use transform="matrix(0.05,0,0,0.05,9,0)" xlink:href="#N"/><use transform="matrix(0.05,0,0,0.05,19,0)" xlink:href="#ai"/><use transform="matrix(0.05,0,0,0.05,33.95,0)" xlink:href="#ai"/><use transform="matrix(0.05,0,0,0.05,48.900000000000006,0)" xlink:href="#T"/><use transform="matrix(0.05,0,0,0.05,58.900000000000006,0)" xlink:href="#ah"/><use transform="matrix(0.05,0,0,0.05,68.9,0)" xlink:href="#ae"/><use transform="matrix(0.05,0,0,0.05,72.85000000000001,0)" xlink:href="#O"/><use transform="matrix(0.05,0,0,0.05,81.85000000000001,0)" xlink:href="#ag"/><use transform="matrix(0.05,0,0,0.05,91.85000000000001,0)" xlink:href="#U"/><use transform="matrix(0.05,0,0,0.05,96.85000000000001,0)" xlink:href="#ae"/><use transform="matrix(0.05,0,0,0.05,100.80000000000001,0)" xlink:href="#N"/><use transform="matrix(0.05,0,0,0.05,110.80000000000001,0)" xlink:href="#ah"/></g><path d="M18-27v-27l151-64-151-65v-27l175 74v36" id="aC"/><g id="A"><use transform="matrix(0.05,0,0,0.05,0,0)" xlink:href="#aC"/><use transform="matrix(0.05,0,0,0.05,10.5,0)" xlink:href="#aC"/></g><g id="B"><use transform="matrix(0.05,0,0,0.05,0,0)" xlink:href="#aB"/><use transform="matrix(0.05,0,0,0.05,10.5,0)" xlink:href="#aB"/></g><g id="C"><use transform="matrix(0.05,0,0,0.05,0,0)" xlink:href="#ao"/><use transform="matrix(0.05,0,0,0.05,10,0)" xlink:href="#ag"/><use transform="matrix(0.05,0,0,0.05,20,0)" xlink:href="#U"/><use transform="matrix(0.05,0,0,0.05,25,0)" xlink:href="#ag"/></g><path d="M101-234c-31-9-42 10-38 44h38v23H63V0H32v-167H5v-23h27c-7-52 17-82 69-68v24" id="aD"/><g id="D"><use transform="matrix(0.05,0,0,0.05,0,0)" xlink:href="#U"/><use transform="matrix(0.05,0,0,0.05,5,0)" xlink:href="#M"/><use transform="matrix(0.05,0,0,0.05,10.95,0)" xlink:href="#ag"/><use transform="matrix(0.05,0,0,0.05,20.95,0)" xlink:href="#ah"/><use transform="matrix(0.05,0,0,0.05,30.950000000000003,0)" xlink:href="#Q"/><use transform="matrix(0.05,0,0,0.05,39.95,0)" xlink:href="#aD"/><use transform="matrix(0.05,0,0,0.05,44.95,0)" xlink:href="#P"/><use transform="matrix(0.05,0,0,0.05,54.95,0)" xlink:href="#M"/></g><g id="E"><use transform="matrix(0.05,0,0,0.05,0,0)" xlink:href="#R"/><use transform="matrix(0.05,0,0,0.05,12,0)" xlink:href="#T"/><use transform="matrix(0.05,0,0,0.05,22,0)" xlink:href="#U"/><use transform="matrix(0.05,0,0,0.05,27,0)" xlink:href="#U"/><use transform="matrix(0.05,0,0,0.05,32,0)" xlink:href="#N"/><use transform="matrix(0.05,0,0,0.05,42,0)" xlink:href="#ah"/><use transform="matrix(0.05,0,0,0.05,52,0)" xlink:href="#Q"/></g><path d="M30 0v-248h187v28H63v79h144v27H63v87h162V0H30" id="aE"/><path d="M141 0L90-78 38 0H4l68-98-65-92h35l48 74 47-74h35l-64 92 68 98h-35" id="aF"/><g id="F"><use transform="matrix(0.05,0,0,0.05,0,0)" xlink:href="#aE"/><use transform="matrix(0.05,0,0,0.05,12,0)" xlink:href="#aF"/><use transform="matrix(0.05,0,0,0.05,21,0)" xlink:href="#U"/><use transform="matrix(0.05,0,0,0.05,26,0)" xlink:href="#P"/><use transform="matrix(0.05,0,0,0.05,36,0)" xlink:href="#M"/><use transform="matrix(0.05,0,0,0.05,41.95,0)" xlink:href="#ah"/><use transform="matrix(0.05,0,0,0.05,51.95,0)" xlink:href="#ag"/><use transform="matrix(0.05,0,0,0.05,61.95,0)" xlink:href="#S"/></g><path d="M205 0l-28-72H64L36 0H1l101-248h38L239 0h-34zm-38-99l-47-123c-12 45-31 82-46 123h93" id="aG"/><g id="G"><use transform="matrix(0.05,0,0,0.05,0,0)" xlink:href="#aG"/><use transform="matrix(0.05,0,0,0.05,12,0)" xlink:href="#ah"/><use transform="matrix(0.05,0,0,0.05,22,0)" xlink:href="#ao"/><use transform="matrix(0.05,0,0,0.05,32,0)" xlink:href="#M"/><use transform="matrix(0.05,0,0,0.05,37.95,0)" xlink:href="#N"/><use transform="matrix(0.05,0,0,0.05,47.95,0)" xlink:href="#ae"/><use transform="matrix(0.05,0,0,0.05,51.900000000000006,0)" xlink:href="#ao"/></g><path d="M115-194c55 1 70 41 70 98S169 2 115 4C84 4 66-9 55-30l1 105H24l-1-265h31l2 30c10-21 28-34 59-34zm-8 174c40 0 45-34 45-75s-6-73-45-74c-42 0-51 32-51 76 0 43 10 73 51 73" id="aH"/><g id="H"><use transform="matrix(0.05,0,0,0.05,0,0)" xlink:href="#aG"/><use transform="matrix(0.05,0,0,0.05,12,0)" xlink:href="#aH"/><use transform="matrix(0.05,0,0,0.05,22,0)" xlink:href="#aH"/><use transform="matrix(0.05,0,0,0.05,32,0)" xlink:href="#S"/><use transform="matrix(0.05,0,0,0.05,35.95,0)" xlink:href="#ae"/><use transform="matrix(0.05,0,0,0.05,39.900000000000006,0)" xlink:href="#O"/><use transform="matrix(0.05,0,0,0.05,48.900000000000006,0)" xlink:href="#ag"/><use transform="matrix(0.05,0,0,0.05,58.900000000000006,0)" xlink:href="#U"/><use transform="matrix(0.05,0,0,0.05,63.900000000000006,0)" xlink:href="#ae"/><use transform="matrix(0.05,0,0,0.05,67.85000000000001,0)" xlink:href="#N"/><use transform="matrix(0.05,0,0,0.05,77.85000000000001,0)" xlink:href="#ah"/></g><g id="I"><use transform="matrix(0.05,0,0,0.05,0,0)" xlink:href="#R"/><use transform="matrix(0.05,0,0,0.05,12,0)" xlink:href="#S"/><use transform="matrix(0.05,0,0,0.05,15.949999999999998,0)" xlink:href="#T"/><use transform="matrix(0.05,0,0,0.05,25.950000000000003,0)" xlink:href="#P"/><use transform="matrix(0.05,0,0,0.05,35.95,0)" xlink:href="#U"/><use transform="matrix(0.05,0,0,0.05,40.95,0)" xlink:href="#N"/><use transform="matrix(0.05,0,0,0.05,50.95,0)" xlink:href="#N"/><use transform="matrix(0.05,0,0,0.05,60.95,0)" xlink:href="#U"/><use transform="matrix(0.05,0,0,0.05,65.95,0)" xlink:href="#V"/></g><path d="M232-93c-1 65-40 97-104 97C67 4 28-28 28-90v-158h33c8 89-33 224 67 224 102 0 64-133 71-224h33v155" id="aI"/><g id="J"><use transform="matrix(0.05,0,0,0.05,0,0)" xlink:href="#aI"/><use transform="matrix(0.05,0,0,0.05,12.950000000000001,0)" xlink:href="#Q"/><use transform="matrix(0.05,0,0,0.05,21.950000000000003,0)" xlink:href="#P"/><use transform="matrix(0.05,0,0,0.05,31.950000000000003,0)" xlink:href="#M"/></g><g id="K"><use transform="matrix(0.05,0,0,0.05,0,0)" xlink:href="#ae"/><use transform="matrix(0.05,0,0,0.05,3.95,0)" xlink:href="#ah"/><use transform="matrix(0.05,0,0,0.05,13.949999999999998,0)" xlink:href="#U"/><use transform="matrix(0.05,0,0,0.05,18.95,0)" xlink:href="#P"/><use transform="matrix(0.05,0,0,0.05,28.950000000000003,0)" xlink:href="#M"/><use transform="matrix(0.05,0,0,0.05,34.9,0)" xlink:href="#aD"/><use transform="matrix(0.05,0,0,0.05,39.9,0)" xlink:href="#ag"/><use transform="matrix(0.05,0,0,0.05,49.9,0)" xlink:href="#O"/><use transform="matrix(0.05,0,0,0.05,58.900000000000006,0)" xlink:href="#P"/></g></defs></g></svg>